<?xml version="1.0" encoding="utf-8" ?><svg xmlns="http://www.w3.org/2000/svg" xmlns:xlink="http://www.w3.org/1999/xlink" width="604" height="607" viewBox="0 0 604 607"><clipPath id="cl_3"><rect y="-6.1035156e-05" width="604" height="607"/></clipPath><g clip-path="url(#cl_3)"><path fill="#0C0E10" transform="translate(-212 -211)" d="M0 0L1024 0L1024 1024L0 1024L0 0Z"/><path fill="#72F49F" transform="translate(-212 -211)" d="M511.995 325.776C517.093 329.982 523.867 337.085 528.699 341.897L561.949 375.607L606.763 420.261C622.645 436.2 637.4 451.512 653.648 467.38C655.072 466.119 656.648 464.516 658.038 463.175L657.999 417.686C649.981 408.295 606.882 368.203 604.55 362.533C604.676 360.495 604.323 361.377 605.685 359.81L606.437 359.769C609.071 361.55 618.37 371.561 621.592 374.779L662.559 415.801L662.875 465.139C660.788 466.691 658.729 468.28 656.7 469.906C665.919 480.368 677.801 491.146 687.546 501.309C690.598 504.492 697.096 509.968 699.497 513.066C698.088 516.217 680.181 532.549 676.353 536.38L631.096 581.853C610.975 601.862 576.537 635.195 555.749 656.818C555.789 657.163 555.828 657.507 555.868 657.852L556.513 658.005C558.805 656.482 565.578 656.627 567.589 658.469C576.963 659.199 597.147 658.554 607.145 658.537L661.784 604.343C669.787 596.357 677.748 588.255 685.778 580.296C686.745 579.338 689.1 577.428 690.475 577.075C691.96 576.694 692.083 577.162 693.136 577.978C692.235 580.907 617.558 654.469 608.853 663.133C594.944 662.989 581.033 662.938 567.123 662.978C562.982 662.983 559.013 663.071 554.873 663.246C552.265 663.356 552.284 662.697 550.707 660.963C548.635 661.111 516.215 695.006 512.166 699.051L441.502 628.282C427.972 614.794 413.003 600.632 399.946 586.919C402.735 583.254 408.426 577.899 411.835 574.565C444.919 608.289 478.348 641.671 512.118 674.708C518.025 668.468 525.31 661.688 531.51 655.53L577.195 610.369L675.212 512.518L552.342 389.615C538.968 376.371 525.63 362.419 512.049 349.489L349.406 511.925C358.942 522.535 368.984 531.644 378.969 541.741C388.721 551.604 397.817 561.506 407.879 571.112C403.753 574.92 399.602 578.965 395.526 582.848C388.18 575.401 381.007 568.146 373.302 561.062C371.895 562.339 370.37 564.006 369.032 565.393C368.59 579.581 368.984 595.783 368.997 610.127C387.41 626.652 404.116 646.411 422.537 663.069C424.669 664.997 425.656 666.956 424.314 669.584L423.543 669.696C420.254 667.848 406.814 653.965 403.247 650.398L364.73 611.892L364.617 563.08C366.632 561.218 368.633 559.34 370.62 557.447C363.204 549.875 354.981 542.525 347.453 534.98C339.977 527.488 332.654 519.939 325.078 512.542C332.437 504.128 345.556 492.162 353.972 483.778L430.23 407.034C442.908 394.271 455.956 381.636 468.451 368.675C469.653 367.428 470.38 366.795 470.442 365.367C466.588 363.086 426.989 363.942 419.71 363.943C412.213 371.85 403.863 379.344 396.173 387.117C377.254 406.241 357.734 424.758 338.848 443.911C337.178 445.604 334.356 447.964 332.197 446.068L332.186 444.955C339.882 435.893 355.132 421.778 364.1 412.968L418.218 359.525L471.735 359.477C472.75 360.542 474.019 362.133 475.004 363.289C486.79 350.26 499.132 337.743 511.995 325.776Z"/><path fill="#0A2417" transform="translate(-212 -211)" d="M567.589 658.469C564.634 658.667 555.392 659.996 554.841 656.357C557.421 653.081 562.004 648.828 565.054 645.808C570.752 640.206 576.417 634.571 582.049 628.902L657.698 553.924C667.654 544.144 677.157 533.869 687.244 524.236C690.424 521.2 695.999 515.408 699.497 513.066C698.088 516.217 680.181 532.549 676.353 536.38L631.096 581.853C610.975 601.862 576.537 635.195 555.749 656.818C555.789 657.163 555.828 657.507 555.868 657.852L556.513 658.005C558.805 656.482 565.578 656.627 567.589 658.469Z"/><path fill="#72F49F" transform="translate(-212 -211)" d="M510.655 528.87C512.36 528.793 513.091 528.619 514.673 529.292C515.096 531.59 514.891 540.249 514.892 542.985L514.946 572.728C525.471 573.663 527.993 583.755 527.411 592.618C526.79 602.065 523.091 606.573 513.809 608.29C506.401 608.331 499.022 604.501 497.875 596.799C496.083 584.763 497.211 575.237 510.545 572.559C510.481 557.996 510.518 543.432 510.655 528.87Z"/><path fill="#0C0E10" transform="translate(-212 -211)" d="M509.996 577.147C516.97 576.824 518.526 577.448 522.484 583.203C522.592 588.005 522.586 592.809 522.466 597.611C520.827 599.987 519.853 601.781 517.003 602.954L515.196 603.68C509.643 603.957 506.508 603.638 503.149 598.796L502.553 597.968C502.37 589.228 500.023 580.154 509.996 577.147Z"/><path fill="#72F49F" transform="translate(-212 -211)" d="M509.244 415.052C513.251 414.84 516.046 414.781 519.766 416.799C523.247 418.643 525.787 421.871 526.762 425.688C529.435 436.003 526.75 448.458 514.658 450.727C514.564 465.083 514.808 479.763 514.858 494.155C513.242 494.345 512.413 494.596 510.889 494.021C509.656 490.311 510.556 456.873 510.766 450.735C505.901 450.165 500.352 447.536 498.925 442.752C495.249 430.427 496.726 419.801 509.244 415.052Z"/><path fill="#0C0E10" transform="translate(-212 -211)" d="M509.434 420.129C516.459 419.711 518.36 420.015 522.467 425.568C522.691 430.628 522.737 435.349 522.431 440.39C520.006 443.767 519.647 444.565 515.603 446C504.383 446.422 502.036 443.056 502.438 432.912C502.724 425.697 501.906 423.295 509.434 420.129Z"/><path fill="#72F49F" transform="translate(-212 -211)" d="M424.302 497.172C435.459 497.349 446.978 495.016 448.884 509.623L478.902 509.672C482.275 509.675 491.663 508.823 493.994 510.611C494.305 512.158 494.398 512.096 493.928 513.57C492.348 514.281 475.279 513.963 472.25 513.955L448.83 514.009C445.852 525.304 441.059 525.277 430.944 526.115C411.899 527.693 408.176 503.464 424.302 497.172Z"/><path fill="#0C0E10" transform="translate(-212 -211)" d="M426.71 501.609C432.605 501.366 441.745 500.453 443.753 507.532C445.64 514.183 443.584 519.424 436.904 521.438C434.175 521.518 426.219 521.872 424.167 520.792C416.686 516.852 416.66 504.143 425.728 501.879L426.71 501.609Z"/><path fill="#72F49F" transform="translate(-212 -211)" d="M586.404 497.194C595.438 496.847 605.22 495.343 609.422 505.532C611.041 509.568 610.965 514.087 609.209 518.066C605.91 525.526 600.246 525.793 593.145 525.743C582.73 525.671 578.594 524.429 575.714 513.701L566.206 513.689C562.537 513.704 532.3 514.207 530.933 513.659C529.876 511.985 530.225 512.925 530.304 510.607C532.428 509.088 569.719 509.913 575.899 509.968C577.288 502.966 579.202 499.257 586.404 497.194Z"/><path fill="#0C0E10" transform="translate(-212 -211)" d="M586.381 502.08C589.362 501.962 597.154 501.623 599.747 502.56C608.589 505.758 607.725 517.107 599.821 520.961C590.567 522.391 579.026 522.548 580.494 509.494C580.933 505.595 582.937 503.638 586.381 502.08Z"/><path fill="#72F49F" transform="translate(-212 -211)" d="M510.976 265.283C513.223 265.836 560.91 314.169 566.805 320.062C572.553 325.831 578.331 331.571 584.137 337.281C586.963 340.044 592.441 345.039 594.621 347.778C594.606 349.705 594.104 349.579 592.477 351.52C571.095 331.157 549.129 308.797 528.25 287.819L511.48 271.321C492.749 288.843 474.972 307.601 456.477 325.384C453.287 328.451 450.119 331.712 446.743 334.555C445.196 334.878 445.951 334.903 444.398 334.411L444.241 333.281C446.118 328.66 464.339 311.504 468.996 306.9L510.976 265.283Z"/><path fill="#72F49F" transform="translate(-212 -211)" d="M434.512 675.946C441.538 681.986 451.031 692.597 457.989 699.344C476.392 717.191 494.383 736.248 512.887 753.931C520.565 746.128 573.754 691.553 578.183 690.103C581.057 691.933 579.404 693.789 577.81 695.5C556.046 716.146 534.564 738.916 512.888 759.781C502.248 751.319 487.974 735.153 477.907 725.214L446.14 693.897C442.433 690.194 434.754 682.908 431.657 679.048C431.961 677.706 433.354 676.893 434.512 675.946Z"/><path fill="#72F49F" transform="translate(-212 -211)" d="M319.515 456.498L322.658 459.588L270.17 511.65C276.023 518.628 289.91 531.552 296.929 538.47C309.651 551.008 322.659 564.752 335.528 576.926L332.356 579.602C329.998 578.354 316.368 564.148 313.619 561.395L264.245 511.804C280.843 493.657 301.996 474.471 319.515 456.498Z"/><path fill="#72F49F" transform="translate(-212 -211)" d="M694.099 446.822C695.945 447.577 754.645 506.526 759.784 512.264C754.307 518.617 744.744 527.792 738.711 533.736L703.725 568.109L702.967 568.165C701.922 567.364 701.367 567.155 700.973 565.937C701.969 562.665 716.151 549.871 719.373 546.684C730.818 535.159 742.367 523.737 754.017 512.419C739.958 497.624 723.693 482.807 709.506 467.913C703.91 462.039 696.875 455.818 691.652 449.764C692.136 448.295 692.84 447.99 694.099 446.822Z"/><path fill="#72F49F" transform="translate(-212 -211)" d="M509.46 501.541C516.878 501.405 515.386 500.962 515.537 508.576C520.368 509.052 523.674 507.667 522.028 514.005C521.843 514.717 516.039 514.702 515.161 514.771C515.059 517.096 515.055 519.27 515.048 521.598C509.02 521.499 510.371 522.229 509.659 516.999L509.368 514.983L508.584 514.896C501.891 514.108 502.46 516.189 502.58 508.973C504.847 508.94 507.112 508.875 509.376 508.778C509.378 506.333 509.366 503.993 509.46 501.541Z"/></g></svg>